# xmcd CD database file
#
# Track frame offsets:
#	150
#	18790
#	36023
#	49583
#	66380
#	83508
#	100053
#	119025
#	138033
#	158485
#	178445
#	196560
#	213648
#
# Disc length: 3180 seconds
#
# Revision: 0
# Processed by: cddbd v1.5.2PL0 Copyright (c) Steve Scherf et al.
# Submitted via: CDex 1.51
#
DISCID=a60c6a0d
DTITLE=Fafa De Belem - Cantiga Pra Ninar Meu Namorado
DYEAR=1900
DGENRE=Jazz
TTITLE0=Todo Dia
TTITLE1=Grao del Areia
TTITLE2=Quando a Sanfona Tocar
TTITLE3=Tenho Pressa
TTITLE4=Fiel Como Um Cao
TTITLE5=Porque
TTITLE6=Poeira de Estralas
TTITLE7=Bandoleiro
TTITLE8=Marcas
TTITLE9=Coracao de Sape
TTITLE10=Ping Pong de Amor
TTITLE11=O Homen Que Eu Amo
TTITLE12=Cantiga Pra Ninar Meu Namorado
EXTD=
EXTT0=
EXTT1=
EXTT2=
EXTT3=
EXTT4=
EXTT5=
EXTT6=
EXTT7=
EXTT8=
EXTT9=
EXTT10=
EXTT11=
EXTT12=
PLAYORDER=
